# xmcd CD database file
#
# Track frame offsets:
#	150
#	16955
#	32770
#	49738
#	66602
#	81073
#	97090
#	101711
#	116206
#	140412
#	152522
#	168536
#	188005
#
# Disc length: 2688 seconds
#
# Revision: 0
# Processed by: cddbd v1.5.2PL0 Copyright (c) Steve Scherf et al.
# Submitted via: CDex 1.70beta2
#
DISCID=b10a7e0d
DTITLE=Twelve Mile Prairie - USA - Country - Too Long In the Saddle brand
DYEAR=1900
DGENRE=Country
TTITLE0=Wreck of the Old 97
TTITLE1=Twelve Mile Prairie
TTITLE2=Amanda
TTITLE3=T for Texas
TTITLE4=Guitars and cadillacs
TTITLE5=Rainbow At Midnight
TTITLE6=Beaumont Blues
TTITLE7=Six Days On the Road
TTITLE8=Good Hearted Woman
TTITLE9=It Don't Mean That i Miss You
TTITLE10=waltx Across Texas
TTITLE11=Swingin' Door
TTITLE12=Rollinh' In My Sweet baby't Arms
EXTD=
EXTT0=
EXTT1=
EXTT2=
EXTT3=
EXTT4=
EXTT5=
EXTT6=
EXTT7=
EXTT8=
EXTT9=
EXTT10=
EXTT11=
EXTT12=
PLAYORDER=
